<?xml version="1.0" encoding="UTF-8"?>
<!DOCTYPE svg PUBLIC "-//W3C//DTD SVG 1.1//EN" "http://www.w3.org/Graphics/SVG/1.1/DTD/svg11.dtd">
<!-- Creator: CorelDRAW X7 -->
<svg xmlns="http://www.w3.org/2000/svg" xml:space="preserve" width="3.33333in" height="1.05999in" version="1.1" style="shape-rendering:geometricPrecision; text-rendering:geometricPrecision; image-rendering:optimizeQuality; fill-rule:evenodd; clip-rule:evenodd"
viewBox="0 0 3333 1060"
 xmlns:xlink="http://www.w3.org/1999/xlink">
 <defs>
  <style type="text/css">
   <![CDATA[
    .fil1 {fill:#FFFFFF}
    .fil0 {fill:#FFFFFF;fill-rule:nonzero}
   ]]>
  </style>
 </defs>
 <g id="Слой_x0020_1">
  <metadata id="CorelCorpID_0Corel-Layer"/>
  <g id="_1087087200">
   <polygon class="fil0" points="1253,850 1253,318 1393,318 1581,666 1583,666 1583,318 1693,318 1693,850 1567,850 1366,491 1363,491 1363,850 1253,850 "/>
   <path class="fil0" d="M1946 773c-51,0 -79,-50 -79,-116 0,-57 22,-116 79,-116 55,0 77,58 77,115 0,70 -29,117 -77,117zm4 -318c-117,0 -194,80 -194,205 0,125 82,199 188,199 97,0 191,-65 191,-206 0,-117 -74,-198 -185,-198z"/>
   <path class="fil0" d="M3144 773c-51,0 -78,-50 -78,-116 0,-57 22,-116 78,-116 55,0 77,58 77,115 0,70 -29,117 -77,117zm189 -117l0 -6c-1,-115 -75,-195 -184,-195 -118,0 -195,80 -195,205 0,125 82,199 188,199 96,0 190,-64 191,-203z"/>
   <path class="fil0" d="M2260 464c0,0 71,239 78,270l2 0c6,-32 75,-270 75,-270l112 0 -117 386 -142 0 -124 -386 119 0 -3 0z"/>
   <path class="fil0" d="M2655 696c3,49 53,73 109,73 41,0 78,-9 110,-20l16 81c-39,17 -91,28 -143,28 -131,0 -206,-75 -206,-196 0,-98 60,-206 195,-206 124,0 172,97 172,192 0,21 -4,36 -4,36l-249 12 0 0zm73 -161c-50,1 -71,47 -74,79l143 -5c0,0 -3,-74 -69,-74z"/>
   <path class="fil1" d="M416 287c27,-161 154,-279 294,-288l35 0c9,1 18,2 27,4 134,23 223,158 228,299 67,24 92,137 53,252 -37,111 -128,215 -203,259 -69,94 -195,193 -312,230 -136,44 -239,3 -224,-96 135,118 320,7 433,-118 24,9 55,6 90,-9 5,-3 8,-4 13,-7 78,-74 199,-250 102,-340 24,-44 41,-96 47,-150 1,-6 1,-14 1,-21 -71,-171 -275,-120 -365,36 -51,-33 -116,-53 -189,-52 -11,0 -21,0 -30,1 -177,125 -232,412 -14,493 -44,49 -74,100 -84,149 -3,6 -4,12 -4,18 -175,2 -314,-104 -314,-261 0,-8 0,-15 1,-23 16,-192 203,-358 415,-376l0 0z"/>
  </g>
 </g>
</svg>
